<?xml version="1.0" standalone="no"?>
<!DOCTYPE svg PUBLIC "-//W3C//DTD SVG 20010904//EN"
 "http://www.w3.org/TR/2001/REC-SVG-20010904/DTD/svg10.dtd">
<svg version="1.0" xmlns="http://www.w3.org/2000/svg"
 width="700.000000pt" height="700.000000pt" viewBox="0 0 700.000000 700.000000"
 preserveAspectRatio="xMidYMid meet">
<metadata>
Created by potrace 1.11, written by Peter Selinger 2001-2013
</metadata>
<g transform="translate(0.000000,700.000000) scale(0.100000,-0.100000)"
fill="#000000" stroke="none">
<path d="M5209 6856 c-2 -2 -24 -6 -49 -9 -60 -8 -196 -50 -251 -77 -72 -37
-171 -104 -225 -153 -29 -26 -56 -47 -60 -47 -5 0 -76 20 -159 44 -190 56
-295 80 -465 105 -406 59 -874 40 -1235 -51 -44 -11 -91 -22 -105 -25 -110
-20 -526 -182 -670 -260 -355 -194 -573 -354 -820 -602 -424 -426 -716 -944
-865 -1532 -31 -122 -71 -351 -80 -454 -3 -44 -9 -88 -11 -97 -3 -9 -5 -110
-5 -225 -1 -189 3 -283 16 -383 3 -19 7 -55 10 -80 23 -186 87 -458 149 -635
350 -1006 1144 -1778 2146 -2088 510 -158 1013 -193 1540 -106 762 125 1486
540 1986 1139 399 477 669 1092 744 1695 6 50 15 117 20 150 9 64 6 620 -3
670 -3 17 -8 48 -11 70 -27 217 -100 482 -213 770 -93 237 -249 519 -397 719
l-53 72 18 35 c27 50 76 205 85 269 10 69 10 208 1 280 -14 111 -46 205 -106
315 -127 233 -315 383 -577 461 -70 20 -116 27 -220 30 -72 2 -132 3 -135 0z
m-1444 -660 c39 -3 79 -8 90 -10 11 -2 45 -7 75 -10 74 -9 266 -52 366 -82
l81 -24 -2 -118 c-4 -175 27 -316 101 -463 92 -185 279 -360 462 -434 37 -15
76 -31 87 -36 42 -18 185 -40 266 -42 147 -3 281 23 403 77 l56 25 39 -57
c103 -153 186 -301 264 -472 28 -60 87 -221 87 -236 0 -8 13 -52 29 -99 27
-77 62 -224 76 -321 4 -22 8 -50 11 -64 22 -124 26 -535 6 -675 -24 -164 -22
-154 -52 -291 -21 -97 -27 -121 -77 -279 -231 -731 -776 -1339 -1489 -1658
-244 -110 -560 -196 -814 -222 -30 -4 -71 -8 -90 -11 -43 -6 -418 -6 -428 -1
-4 3 -43 8 -87 11 -44 4 -89 9 -100 11 -11 2 -36 7 -55 9 -252 36 -584 147
-838 282 -795 419 -1343 1209 -1452 2094 -18 147 -19 171 -20 335 0 170 2 213
26 395 75 574 350 1133 763 1550 258 260 566 473 861 594 36 15 79 33 95 41
90 41 384 126 481 140 22 3 59 10 84 15 59 12 108 18 205 26 44 3 81 7 82 8 5
5 343 -2 408 -8z"/>
<path d="M2048 4275 c-1 -1 -25 -5 -53 -8 -110 -11 -255 -79 -329 -153 -45
-45 -99 -131 -91 -144 3 -5 2 -10 -3 -10 -16 0 -38 -111 -36 -182 3 -107 29
-173 95 -242 37 -38 62 -56 70 -51 8 5 10 4 5 -3 -4 -6 6 -18 24 -27 16 -8 30
-12 30 -8 0 5 4 2 9 -5 9 -15 180 -81 217 -84 13 -1 24 -6 24 -10 0 -4 3 -7 8
-6 18 5 117 -40 160 -72 99 -75 82 -196 -35 -246 -17 -7 -45 -15 -62 -16 -17
-1 -31 -5 -31 -8 0 -3 -19 -5 -42 -4 -24 2 -43 3 -43 4 0 1 -10 3 -22 6 -61
11 -137 49 -178 89 l-44 44 -58 -65 c-32 -35 -84 -92 -115 -126 -32 -34 -58
-65 -58 -68 0 -23 212 -150 251 -150 11 0 27 -4 37 -10 41 -23 292 -35 362
-17 8 2 29 7 45 11 17 4 39 11 50 16 11 5 31 12 44 15 38 11 116 61 114 73 -2
6 3 9 10 6 35 -13 172 203 151 238 -3 4 -1 8 3 8 15 0 22 147 10 205 -17 89
-46 142 -104 196 -42 38 -133 94 -133 82 0 -4 -4 -3 -8 3 -8 11 -82 39 -212
78 -47 14 -107 37 -134 51 -27 13 -53 22 -59 18 -5 -3 -7 -1 -3 5 3 6 0 16 -7
24 -15 15 -37 94 -29 103 3 3 7 12 8 20 4 28 40 65 84 87 46 24 200 42 200 24
0 -4 7 -6 15 -2 8 3 15 2 15 -3 0 -9 54 -25 78 -24 7 1 11 -1 8 -4 -2 -3 10
-17 27 -33 l31 -27 52 55 c29 31 50 61 47 67 -4 5 -3 7 2 3 4 -4 23 10 41 30
19 20 46 49 60 64 l26 27 -28 25 c-36 32 -159 95 -199 102 -17 2 -38 7 -47 10
-9 3 -27 7 -40 10 -28 5 -205 14 -210 9z m-285 -690 c-3 -9 -8 -14 -10 -11 -3
3 -2 9 2 15 9 16 15 13 8 -4z"/>
<path d="M4706 4243 c-2 -3 -62 -4 -133 -4 l-128 1 0 -524 c0 -349 3 -522 10
-518 6 3 6 0 -1 -9 -6 -9 -10 -94 -10 -234 l1 -220 166 -2 166 -3 -1 300 c-1
192 3 301 9 304 6 2 25 1 44 -2 27 -4 32 -2 26 9 -7 12 -6 12 7 1 9 -7 27 -11
40 -8 14 2 29 1 35 -2 9 -7 98 -169 153 -280 15 -29 30 -49 35 -45 4 5 5 2 1
-5 -4 -7 -3 -18 2 -25 5 -7 33 -58 62 -115 28 -56 55 -100 60 -97 4 3 6 -4 3
-15 -5 -19 1 -20 196 -20 111 0 201 4 201 9 0 5 -9 20 -20 34 -11 14 -20 30
-20 36 0 6 -4 11 -10 11 -5 0 -12 11 -16 25 -3 14 -10 25 -15 25 -5 0 -9 4 -9
9 0 11 -47 93 -101 176 -25 37 -36 56 -90 153 -12 20 -33 55 -48 77 -15 22
-30 48 -34 58 -4 11 -12 15 -19 11 -9 -5 -10 -4 -3 3 6 6 34 18 64 27 137 44
224 141 257 287 3 13 7 60 9 104 7 179 -70 322 -209 390 -30 15 -57 25 -59 23
-2 -1 -10 2 -18 8 -12 10 -33 16 -114 31 -11 2 -114 6 -230 8 -115 3 -220 7
-232 9 -13 2 -24 1 -27 -1z m739 -152 c3 -5 2 -12 -3 -15 -5 -3 -9 1 -9 9 0
17 3 19 12 6z m-593 -136 c5 5 148 9 158 5 3 -1 28 -3 55 -5 119 -9 186 -68
186 -163 1 -80 -23 -122 -86 -151 -43 -20 -52 -21 -230 -24 l-160 -4 2 166 c0
91 1 169 2 173 2 11 35 15 52 7 9 -5 18 -6 21 -4z m462 -1113 c3 -5 -1 -9 -9
-9 -8 0 -15 4 -15 9 0 4 4 8 9 8 6 0 12 -4 15 -8z"/>
<path d="M2825 3484 l0 -754 165 0 165 0 0 325 c0 179 2 325 5 326 29 5 619 3
631 -3 13 -6 15 -46 14 -327 l-1 -321 167 0 166 0 -1 58 c-1 31 -6 63 -10 71
-6 10 -5 12 2 7 14 -8 11 131 -2 153 -6 10 -5 12 2 7 14 -8 11 131 -2 153 -6
9 -5 12 1 8 13 -8 11 502 -1 522 -6 9 -5 12 0 8 6 -3 10 96 10 258 l0 264
-162 0 c-121 1 -163 -2 -166 -11 -2 -7 -4 -133 -3 -280 0 -176 -3 -268 -10
-269 -5 -1 -16 -1 -22 0 -7 1 -13 -4 -13 -11 0 -8 -3 -9 -8 -3 -10 15 -464 15
-474 1 -5 -8 -8 -8 -8 0 0 7 -21 10 -58 9 l-57 -2 0 283 1 283 -166 0 -165 0
0 -755z m1020 96 c3 -5 1 -10 -4 -10 -6 0 -11 5 -11 10 0 6 2 10 4 10 3 0 8
-4 11 -10z m-135 -96 c0 -8 -19 -13 -24 -6 -3 5 1 9 9 9 8 0 15 -2 15 -3z
m285 -644 c3 -6 -1 -7 -9 -4 -18 7 -21 14 -7 14 6 0 13 -4 16 -10z"/>
</g>
</svg>
