<?xml version="1.0" encoding="UTF-8" standalone="no"?>
<svg width="44px" height="36px" viewBox="0 0 88 72" version="1.1" xmlns="http://www.w3.org/2000/svg" xmlns:xlink="http://www.w3.org/1999/xlink">
    <!-- Generator: Sketch 39.1 (31720) - http://www.bohemiancoding.com/sketch -->
    <title>Shape</title>
    <desc></desc>
    <defs></defs>
    <g id="Page-1" stroke="none" stroke-width="1" fill="none" fill-rule="evenodd">
        <rect id="Rectangle" fill="" x="5" y="5" width="78" height="61"></rect>
        <path d="M76,0 L12,0 C5.373,0 0,5.373 0,12 L0,60 C0,66.627 5.373,72 12,72 L76,72 C82.627,72 88,66.627 88,60 L88,12 C88,5.373 82.627,0 76,0 L76,0 Z M76,8 C76.462,8 76.906,8.078 77.318,8.223 L44,34.878 L10.682,8.223 C11.094,8.078 11.538,8 12,8 L76,8 L76,8 Z M76,64 L12,64 C9.791,64 8,62.209 8,60 L8,16.322 L41.501,43.123 C42.231,43.708 43.115,44 44,44 C44.885,44 45.769,43.708 46.499,43.123 L80,16.322 L80,60 C80,62.209 78.209,64 76,64 L76,64 Z" id="Shape" fill="#037A88"></path>
    </g>
</svg>