<?xml version="1.0" encoding="UTF-8" standalone="no"?>
<svg width="59px" height="59px" viewBox="0 0 59 59" version="1.1" xmlns="http://www.w3.org/2000/svg" xmlns:xlink="http://www.w3.org/1999/xlink">
    <!-- Generator: Sketch 39.1 (31720) - http://www.bohemiancoding.com/sketch -->
    <title>Slice</title>
    <desc>Created with Sketch.</desc>
    <defs></defs>
    <g id="Page-1" stroke="none" stroke-width="1" fill="none" fill-rule="evenodd">
        <path d="M19.7646537,26.37 C19.5366526,26.0819986 19.2276556,25.8690007 18.8376537,25.731 C18.4476517,25.5929993 18.0786554,25.524 17.7306537,25.524 C17.5266527,25.524 17.3166548,25.5479998 17.1006537,25.596 C16.8846526,25.6440002 16.6806547,25.7189995 16.4886537,25.821 C16.2966527,25.9230005 16.1406543,26.0579992 16.0206537,26.226 C15.9006531,26.3940008 15.8406537,26.5979988 15.8406537,26.838 C15.8406537,27.2220019 15.9846523,27.515999 16.2726537,27.72 C16.5606551,27.924001 16.9236515,28.0979993 17.3616537,28.242 C17.7996559,28.3860007 18.2706512,28.5299993 18.7746537,28.674 C19.2786562,28.8180007 19.7496515,29.0219987 20.1876537,29.286 C20.6256559,29.5500013 20.9886523,29.9039978 21.2766537,30.348 C21.5646551,30.7920022 21.7086537,31.3859963 21.7086537,32.13 C21.7086537,32.8380035 21.576655,33.4559974 21.3126537,33.984 C21.0486524,34.5120026 20.6916559,34.9499983 20.2416537,35.298 C19.7916514,35.6460017 19.2696567,35.9039992 18.6756537,36.072 C18.0816507,36.2400008 17.454657,36.324 16.7946537,36.324 C15.9666496,36.324 15.1986572,36.1980013 14.4906537,35.946 C13.7826502,35.6939987 13.1226568,35.2860028 12.5106537,34.722 L14.5086537,32.526 C14.7966551,32.9100019 15.1596515,33.206999 15.5976537,33.417 C16.0356559,33.627001 16.4886514,33.732 16.9566537,33.732 C17.1846548,33.732 17.4156525,33.7050003 17.6496537,33.651 C17.8836549,33.5969997 18.0936528,33.5160005 18.2796537,33.408 C18.4656546,33.2999995 18.6156531,33.1620008 18.7296537,32.994 C18.8436543,32.8259992 18.9006537,32.6280011 18.9006537,32.4 C18.9006537,32.0159981 18.7536552,31.7130011 18.4596537,31.491 C18.1656522,31.2689989 17.7966559,31.0800008 17.3526537,30.924 C16.9086515,30.7679992 16.4286563,30.6120008 15.9126537,30.456 C15.3966511,30.2999992 14.9166559,30.0900013 14.4726537,29.826 C14.0286515,29.5619987 13.6596552,29.2140022 13.3656537,28.782 C13.0716522,28.3499978 12.9246537,27.7800035 12.9246537,27.072 C12.9246537,26.3879966 13.0596523,25.7880026 13.3296537,25.272 C13.599655,24.7559974 13.9596514,24.3240017 14.4096537,23.976 C14.8596559,23.6279983 15.3786508,23.3670009 15.9666537,23.193 C16.5546566,23.0189991 17.1606506,22.932 17.7846537,22.932 C18.5046573,22.932 19.2006503,23.033999 19.8726537,23.238 C20.5446571,23.442001 21.150651,23.7839976 21.6906537,24.264 L19.7646537,26.37 Z M23.7966537,23.256 L26.6046537,23.256 L26.6046537,28.008 L32.0586537,28.008 L32.0586537,23.256 L34.8666537,23.256 L34.8666537,36 L32.0586537,36 L32.0586537,30.492 L26.6046537,30.492 L26.6046537,36 L23.7966537,36 L23.7966537,23.256 Z M37.4586537,23.256 L42.3906537,23.256 C43.0386569,23.256 43.6536508,23.3189994 44.2356537,23.445 C44.8176566,23.5710006 45.3276515,23.7809985 45.7656537,24.075 C46.2036559,24.3690015 46.5516524,24.7649975 46.8096537,25.263 C47.067655,25.7610025 47.1966537,26.3819963 47.1966537,27.126 C47.1966537,28.0260045 46.962656,28.7909968 46.4946537,29.421 C46.0266514,30.0510031 45.3426582,30.4499992 44.4426537,30.618 L47.6826537,36 L44.3166537,36 L41.6526537,30.906 L40.2666537,30.906 L40.2666537,36 L37.4586537,36 L37.4586537,23.256 Z M40.2666537,28.53 L41.9226537,28.53 C42.174655,28.53 42.4416523,28.5210001 42.7236537,28.503 C43.0056551,28.4849999 43.2606526,28.4310004 43.4886537,28.341 C43.7166548,28.2509996 43.9056529,28.110001 44.0556537,27.918 C44.2056544,27.725999 44.2806537,27.4560017 44.2806537,27.108 C44.2806537,26.7839984 44.2146544,26.526001 44.0826537,26.334 C43.950653,26.141999 43.7826547,25.9950005 43.5786537,25.893 C43.3746527,25.7909995 43.140655,25.7220002 42.8766537,25.686 C42.6126524,25.6499998 42.354655,25.632 42.1026537,25.632 L40.2666537,25.632 L40.2666537,28.53 Z" id="SHR" fill="#1F5279" opacity="0.9"></path>
        <path d="M31.5420879,55.521221 C44.8087437,54.5663098 55.2750951,43.5008043 55.2750951,29.9907515 C55.2750951,15.8537397 43.8147827,4.39342732 29.6777709,4.39342732 C15.5407591,4.39342732 4.08044673,15.8537397 4.08044673,29.9907515 C4.08044673,32.6980906 4.50156953,35.2136968 5.2269027,37.520772" id="Oval-3-Copy-88" stroke="#7FC1DD" stroke-width="4.6125" transform="translate(29.677771, 29.957324) rotate(-210.000000) translate(-29.677771, -29.957324) "></path>
        <path d="M36.9287322,55.3027668 C47.2667231,52.0129691 54.7556774,42.3341147 54.7556774,30.9061212 C54.7556774,16.7691095 43.295365,5.30879706 29.1583532,5.30879706 C15.0213415,5.30879706 3.56102906,16.7691095 3.56102906,30.9061212 C3.56102906,35.4967835 4.77183385,39.5361789 6.62346462,42.9424116 C10.473958,50.0257226 17.0956272,54.3709968 21.3628726,55.2417768" id="Oval-3-Copy-89" stroke="#295677" stroke-width="4.6125" stroke-linecap="round" transform="translate(29.158353, 30.305782) rotate(-125.000000) translate(-29.158353, -30.305782) "></path>
        <path d="M44.7936182,15.6643968 C48.4059009,15.6643968 51.3342345,12.7360631 51.3342345,9.12378047 C51.3342345,5.51149784 48.4059009,2.58316418 44.7936182,2.58316418 C41.1813356,2.58316418 38.253002,5.51149784 38.253002,9.12378047 C38.253002,12.7360631 41.1813356,15.6643968 44.7936182,15.6643968 Z" id="Oval-10-Copy-9" stroke="#295677" stroke-width="2.8125" fill="#F7F7FF"></path>
        <path d="M44.8448561,11.8356454 C46.3416467,11.8356454 47.5550351,10.622257 47.5550351,9.12546643 C47.5550351,7.62867591 46.3416467,6.41528744 44.8448561,6.41528744 C43.3480656,6.41528744 42.1346772,7.62867591 42.1346772,9.12546643 C42.1346772,10.622257 43.3480656,11.8356454 44.8448561,11.8356454 Z" id="Oval-10-Copy-10" fill="#2A5677"></path>
    </g>
</svg>