<svg xmlns="http://www.w3.org/2000/svg" width="54" height="54" viewBox="0 0 54 54">
  <g fill="none" fill-rule="evenodd" transform="translate(-7 -6)">
    <circle cx="34" cy="33" r="24" stroke="#A6C0D4" stroke-width="4"/>
    <path stroke="#295677" stroke-width="4.324" d="M40.6626036,57.177666 C50.3544701,54.0702913 57.3753647,44.9281403 57.3753647,34.133842 C57.3753647,20.7807434 46.6313219,9.95591829 33.3778733,9.95591829 C20.1244248,9.95591829 9.38038191,20.7807434 9.38038191,34.133842 C9.38038191,38.4699468 10.5155114,42.2853532 12.2514152,45.5027065 C15.8612527,52.1932399 22.0690676,56.2975637 26.0696102,57.120058" stroke-linecap="round" transform="rotate(-125 33.378 33.567)"/>
    <path fill="#FFFFFF" stroke="#295677" stroke-width="2.637" d="M48.5359343,19.7372883 C51.9224492,19.7372883 54.667762,16.971334 54.667762,13.5593566 C54.667762,10.1473791 51.9224492,7.38142483 48.5359343,7.38142483 C45.1494193,7.38142483 42.4041065,10.1473791 42.4041065,13.5593566 C42.4041065,16.971334 45.1494193,19.7372883 48.5359343,19.7372883 Z"/>
    <path fill="#2A5677" d="M48.5839698,16.1208455 C49.9872109,16.1208455 51.1247626,14.9747408 51.1247626,13.560949 C51.1247626,12.1471572 49.9872109,11.0010525 48.5839698,11.0010525 C47.1807287,11.0010525 46.043177,12.1471572 46.043177,13.560949 C46.043177,14.9747408 47.1807287,16.1208455 48.5839698,16.1208455 Z"/>
    <text fill="#1F5279" opacity=".9" font-family="Avenir-Black, Avenir" font-size="17" font-weight="700">
      <tspan x="16.76" y="39.483">SHR</tspan>
    </text>
  </g>
</svg>
