<svg xmlns="http://www.w3.org/2000/svg" width="127" height="129" viewBox="0 0 127 129">
  <g fill="none" fill-rule="evenodd" transform="translate(-17 -13)">
    <path fill="#233A5B" d="M58.0611914,70.6929577 C57.5473861,70.0439405 56.8510549,69.5639452 55.9721774,69.2529577 C55.0932996,68.9419703 54.2617586,68.7864789 53.4775295,68.7864789 C53.0178089,68.7864789 52.5445742,68.8405629 52.0578112,68.9487324 C51.5710481,69.0569019 51.1113345,69.2259144 50.6786562,69.4557746 C50.2459779,69.6856349 49.8944322,69.9898574 49.6240083,70.3684507 C49.3535845,70.7470441 49.2183745,71.2067579 49.2183745,71.7476056 C49.2183745,72.612962 49.5428784,73.2754907 50.1918957,73.7352113 C50.8409129,74.1949318 51.658933,74.5870407 52.6459802,74.9115493 C53.6330274,75.2360579 54.6944252,75.5605618 55.8302055,75.8850704 C56.9659858,76.209579 58.0273837,76.6692928 59.0144309,77.2642254 C60.0014781,77.8591579 60.8194981,78.6568965 61.4685154,79.6574648 C62.1175326,80.6580331 62.4420365,81.9966114 62.4420365,83.6732394 C62.4420365,85.2687403 62.1445746,86.6614026 61.5496421,87.8512676 C60.9547096,89.0411326 60.1502105,90.0281652 59.136121,90.8123944 C58.1220313,91.5966235 56.9457052,92.1780264 55.6071069,92.5566197 C54.2685086,92.9352131 52.8555651,93.124507 51.3682337,93.124507 C49.502309,93.124507 47.7716219,92.8405663 46.176121,92.2726761 C44.5806202,91.7047858 43.0933111,90.7853584 41.7141492,89.5143662 L46.2166844,84.5656338 C46.8657016,85.4309902 47.6837217,86.1002794 48.6707689,86.5735211 C49.6578161,87.0467628 50.678651,87.2833803 51.7333041,87.2833803 C52.2471094,87.2833803 52.7676676,87.2225359 53.2949943,87.1008451 C53.8223209,86.9791543 54.2955556,86.7966208 54.7147126,86.5532394 C55.1338695,86.309858 55.4718943,85.998875 55.7287971,85.6202817 C55.9856998,85.2416883 56.1141492,84.7954954 56.1141492,84.2816901 C56.1141492,83.4163337 55.782885,82.7335236 55.1203464,82.2332394 C54.4578078,81.7329553 53.6262668,81.3070441 52.6256985,80.955493 C51.6251301,80.6039419 50.5434508,80.2523962 49.3806281,79.9008451 C48.2178053,79.549294 47.136126,79.0760593 46.1355576,78.4811268 C45.1349893,77.8861943 44.3034483,77.1019768 43.6409097,76.1284507 C42.9783712,75.1549246 42.6471069,73.8704304 42.6471069,72.2749296 C42.6471069,70.7335135 42.9513291,69.3814143 43.559783,68.2185915 C44.1682366,67.0557688 44.9794961,66.0822574 45.9935858,65.2980282 C47.0076753,64.513799 48.1772412,63.9256358 49.5023182,63.5335211 C50.8273952,63.1414064 52.1930154,62.9453521 53.5992196,62.9453521 C55.2217629,62.9453521 56.7901979,63.175209 58.3045717,63.6349296 C59.8189456,64.0946501 61.1845656,64.8653467 62.4014731,65.9470423 L58.0611914,70.6929577 L58.0611914,70.6929577 Z M67.1473886,63.675493 L73.4752759,63.675493 L73.4752759,74.3842254 L85.7659802,74.3842254 L85.7659802,63.675493 L92.0938675,63.675493 L92.0938675,92.3943662 L85.7659802,92.3943662 L85.7659802,79.9819718 L73.4752759,79.9819718 L73.4752759,92.3943662 L67.1473886,92.3943662 L67.1473886,63.675493 L67.1473886,63.675493 Z M97.9349943,63.675493 L109.04936,63.675493 C110.509649,63.675493 111.895551,63.8174634 113.207107,64.1014085 C114.518663,64.3853535 115.667947,64.8585882 116.654994,65.5211268 C117.642041,66.1836654 118.426259,67.0760507 119.00767,68.1983099 C119.589082,69.320569 119.879783,70.7199917 119.879783,72.3966197 C119.879783,74.4247989 119.352464,76.1487252 118.297811,77.5684507 C117.243158,78.988176 115.701765,79.8873221 113.673586,80.2659155 L120.974994,92.3943662 L113.389642,92.3943662 L107.386262,80.9149296 L104.262882,80.9149296 L104.262882,92.3943662 L97.9349943,92.3943662 L97.9349943,63.675493 L97.9349943,63.675493 Z M104.262882,75.5605634 L107.994713,75.5605634 C108.562603,75.5605634 109.164287,75.5402819 109.799783,75.4997183 C110.435279,75.4591547 111.009921,75.3374657 111.523727,75.1346479 C112.037532,74.9318301 112.463443,74.6140868 112.801473,74.1814085 C113.139503,73.7487301 113.308515,73.1402855 113.308515,72.3560563 C113.308515,71.6259119 113.159785,71.0445093 112.862318,70.611831 C112.564852,70.1791527 112.186264,69.8478885 111.726544,69.6180282 C111.266823,69.3881679 110.739504,69.2326765 110.144572,69.1515493 C109.549639,69.0704221 108.968237,69.0298592 108.400346,69.0298592 L104.262882,69.0298592 L104.262882,75.5605634 L104.262882,75.5605634 Z" opacity=".9"/>
    <path stroke="#BAC5D5" stroke-width="10.378" d="M84.6018884,136.385849 C114.498578,134.233937 138.084722,109.297586 138.084722,78.852397 C138.084722,46.9943422 112.258665,21.1682861 80.4006107,21.1682861 C48.5425559,21.1682861 22.7164999,46.9943422 22.7164999,78.852397 C22.7164999,84.9534428 23.665509,90.6224146 25.3000626,95.8214573" transform="rotate(150 80.4 78.777)"/>
    <path stroke="#233A5B" stroke-width="10.378" d="M96.740804,135.893559 C120.037685,128.47993 136.914202,106.668427 136.914202,80.9152025 C136.914202,49.057148 111.088146,23.2310918 79.2300908,23.2310918 C47.3720362,23.2310918 21.54598,49.057148 21.54598,80.9152025 C21.54598,91.260357 24.2745542,100.36322 28.4472433,108.039237 C37.1244114,124.001628 52.0464829,133.793795 61.6628105,135.756117" transform="rotate(-125 79.23 79.562)"/>
    <path fill="#F7F7FF" stroke="#233A5B" stroke-width="6.328" d="M114.464492,46.5676548 C122.604847,46.5676548 129.203909,39.9685929 129.203909,31.8282377 C129.203909,23.6878825 122.604847,17.0888207 114.464492,17.0888207 C106.324137,17.0888207 99.7250749,23.6878825 99.7250749,31.8282377 C99.7250749,39.9685929 106.324137,46.5676548 114.464492,46.5676548 L114.464492,46.5676548 Z"/>
    <path fill="#233A5B" d="M114.579957,37.9394826 C117.953007,37.9394826 120.687403,35.2050862 120.687403,31.832037 C120.687403,28.458988 117.953007,25.7245914 114.579957,25.7245914 C111.206908,25.7245914 108.472512,28.458988 108.472512,31.832037 C108.472512,35.2050862 111.206908,37.9394826 114.579957,37.9394826 L114.579957,37.9394826 Z"/>
  </g>
</svg>
