<?xml version="1.0" encoding="UTF-8" standalone="no"?>
<svg width="65px" height="63px" viewBox="0 0 65 63" version="1.1" xmlns="http://www.w3.org/2000/svg" xmlns:xlink="http://www.w3.org/1999/xlink">
    <!-- Generator: Sketch 39.1 (31720) - http://www.bohemiancoding.com/sketch -->
    <title>Slice</title>
    <desc>Created with Sketch.</desc>
    <defs></defs>
    <g id="Page-1" stroke="none" stroke-width="1" fill="none" fill-rule="evenodd">
        <text id="SHR" opacity="0.9" font-family="Avenir-Heavy, Avenir" font-size="18" font-weight="700" fill="#1F5279">
            <tspan x="14.4926537" y="37">SHR</tspan>
        </text>
        <path d="M33.5420879,56.521221 C46.8087437,55.5663098 57.2750951,44.5008043 57.2750951,30.9907515 C57.2750951,16.8537397 45.8147827,5.39342732 31.6777709,5.39342732 C17.5407591,5.39342732 6.08044673,16.8537397 6.08044673,30.9907515 C6.08044673,33.6980906 6.50156953,36.2136968 7.2269027,38.520772" id="Oval-3-Copy-88" stroke="#A6C1D5" stroke-width="4.6125" transform="translate(31.677771, 30.957324) rotate(-210.000000) translate(-31.677771, -30.957324) "></path>
        <path d="M38.9287322,56.3027668 C49.2667231,53.0129691 56.7556774,43.3341147 56.7556774,31.9061212 C56.7556774,17.7691095 45.295365,6.30879706 31.1583532,6.30879706 C17.0213415,6.30879706 5.56102906,17.7691095 5.56102906,31.9061212 C5.56102906,36.4967835 6.77183385,40.5361789 8.62346462,43.9424116 C12.473958,51.0257226 19.0956272,55.3709968 23.3628726,56.2417768" id="Oval-3-Copy-89" stroke="#295677" stroke-width="4.6125" stroke-linecap="round" transform="translate(31.158353, 31.305782) rotate(-125.000000) translate(-31.158353, -31.305782) "></path>
        <path d="M46.7936182,16.6643968 C50.4059009,16.6643968 53.3342345,13.7360631 53.3342345,10.1237805 C53.3342345,6.51149784 50.4059009,3.58316418 46.7936182,3.58316418 C43.1813356,3.58316418 40.253002,6.51149784 40.253002,10.1237805 C40.253002,13.7360631 43.1813356,16.6643968 46.7936182,16.6643968 Z" id="Oval-10-Copy-9" stroke="#295677" stroke-width="2.8125" fill="#F7F7FF"></path>
        <path d="M46.8448561,12.8356454 C48.3416467,12.8356454 49.5550351,11.622257 49.5550351,10.1254664 C49.5550351,8.62867591 48.3416467,7.41528744 46.8448561,7.41528744 C45.3480656,7.41528744 44.1346772,8.62867591 44.1346772,10.1254664 C44.1346772,11.622257 45.3480656,12.8356454 46.8448561,12.8356454 Z" id="Oval-10-Copy-10" fill="#2A5677"></path>
    </g>
</svg>